<?xml version="1.0" encoding="utf-8"?>
<svg version="1.1" xmlns:xlink="http://www.w3.org/1999/xlink" width="58px" height="33px" xmlns="http://www.w3.org/2000/svg">
  <g transform="matrix(1 0 0 1 -262 -3 )">
    <path d="M 262 3  L 320 3  L 320 36  L 262 36  L 262 3  " fill-rule="nonzero" fill="#cccccc" stroke="none" />
    <path d="M 264 5  L 318 5  L 318 34  L 264 34  L 264 5  " fill-rule="nonzero" fill="#ffffff" stroke="none" />
    <path d="M 294.635 12.9  C 293.249 12.9  292.16 11.811  292.16 10.425  C 292.16 9.039  293.249 7.95  294.635 7.95  C 296.021 7.95  297.11 9.039  297.11 10.425  C 297.11 11.811  296.021 12.9  294.635 12.9  " fill-rule="nonzero" fill="#cccccc" stroke="none" />
    <path d="M 265 33  L 265 18.15  L 278 11.4  L 296.2 23.7827586206897  L 306.6 15.45  L 317 23.7827586206897  L 317 33  L 265 33  " fill-rule="nonzero" fill="#169bd5" stroke="none" />
  </g>
</svg>